<?xml version="1.0" encoding="UTF-8"?>
<svg width="40px" height="40px" viewBox="0 0 40 40" version="1.1" xmlns="http://www.w3.org/2000/svg" xmlns:xlink="http://www.w3.org/1999/xlink">
    <!-- Generator: Sketch 55.2 (78181) - https://sketchapp.com -->
    <title>Combined Shape</title>
    <desc>Created with Sketch.</desc>
    <g id="1920" stroke="none" stroke-width="1" fill="none" fill-rule="evenodd" opacity="0.200000003">
        <g id="Form_cleaner_2" transform="translate(-885.000000, -509.000000)" fill="#000000">
            <g id="Group-2" transform="translate(520.000000, 473.000000)">
                <g id="Group" transform="translate(329.000000, 0.000000)">
                    <path d="M40.4783903,73.9548139 C40.4886622,73.7054693 40.5917075,73.4596185 40.7862796,73.2734871 L63.8380374,51.2217293 C64.2308807,50.8459278 64.8519868,50.8528123 65.2364037,51.2372292 L74,60.0008255 L74,41 C74,39.3431458 72.6568542,38 71,38 L41,38 C39.3431458,38 38,39.3431458 38,41 L38,71 C38,72.4789423 39.0701804,73.7079306 40.4783903,73.9548139 Z M42.9200904,74 L71,74 C72.6568542,74 74,72.6568542 74,71 L74,62.8112463 C73.9572354,62.7803308 73.916365,62.7456176 73.8778542,62.7071068 L64.5137932,53.3430459 L42.9200904,74 Z M41,36 L71,36 C73.7614237,36 76,38.2385763 76,41 L76,71 C76,73.7614237 73.7614237,76 71,76 L41,76 C38.2385763,76 36,73.7614237 36,71 L36,41 C36,38.2385763 38.2385763,36 41,36 Z M49,51 C50.1045695,51 51,50.1045695 51,49 C51,47.8954305 50.1045695,47 49,47 C47.8954305,47 47,47.8954305 47,49 C47,50.1045695 47.8954305,51 49,51 Z M49,53 C46.790861,53 45,51.209139 45,49 C45,46.790861 46.790861,45 49,45 C51.209139,45 53,46.790861 53,49 C53,51.209139 51.209139,53 49,53 Z" id="Combined-Shape"></path>
                </g>
            </g>
        </g>
    </g>
</svg>